<?xml version="1.0" standalone="no"?>
<!DOCTYPE svg PUBLIC "-//W3C//DTD SVG 20010904//EN"
 "http://www.w3.org/TR/2001/REC-SVG-20010904/DTD/svg10.dtd">
<svg version="1.0" xmlns="http://www.w3.org/2000/svg"
 width="512.000000pt" height="512.000000pt" viewBox="0 0 512.000000 512.000000"
 preserveAspectRatio="xMidYMid meet">

<g transform="translate(0.000000,512.000000) scale(0.100000,-0.100000)"
fill="#000000" stroke="none">
<path d="M2430 4630 c-89 -19 -180 -100 -195 -172 -3 -16 -7 -41 -10 -57 -6
-28 -7 -28 -108 -40 -936 -112 -1717 -838 -1901 -1766 -38 -191 -46 -312 -46
-688 l0 -337 -82 -263 c-80 -255 -82 -265 -82 -362 1 -80 5 -112 23 -158 31
-79 104 -173 171 -218 114 -78 232 -96 435 -65 862 129 2219 156 3255 66 246
-22 441 -43 595 -66 264 -39 418 7 537 163 70 93 91 157 92 278 0 97 -2 107
-82 362 l-82 263 0 337 c0 186 -5 388 -10 448 -62 670 -424 1278 -985 1652
-286 190 -620 314 -952 354 -108 13 -112 16 -113 74 0 11 -9 38 -21 60 -54
102 -123 136 -284 141 -60 2 -130 -1 -155 -6z m277 -182 c11 -13 23 -33 26
-45 l5 -23 -178 0 -178 0 5 23 c3 12 15 32 26 45 19 21 29 22 147 22 118 0
128 -1 147 -22z m88 -238 c148 -21 327 -98 461 -198 423 -315 704 -927 754
-1642 11 -169 13 -560 3 -560 -5 0 -62 7 -128 15 -452 57 -1153 85 -1684 67
-358 -12 -739 -38 -966 -67 -66 -8 -123 -15 -127 -15 -11 0 -9 391 2 560 50
715 331 1327 754 1642 129 96 314 177 451 197 84 12 396 13 480 1z m-1195
-217 c-274 -277 -455 -620 -569 -1081 -62 -250 -82 -430 -90 -821 l-6 -304
-180 -33 c-99 -17 -231 -44 -294 -58 -62 -14 -118 -26 -122 -26 -13 0 -11 504
2 657 40 488 236 917 578 1266 157 161 316 281 506 383 77 42 259 123 276 124
3 0 -42 -48 -101 -107z m1897 76 c162 -63 379 -191 523 -306 88 -71 246 -231
319 -323 93 -117 138 -186 209 -320 133 -251 207 -507 231 -793 13 -153 15
-657 2 -657 -4 0 -60 12 -122 26 -63 14 -195 41 -294 58 l-180 33 -6 304 c-8
391 -28 571 -90 821 -72 292 -158 504 -295 729 -85 141 -157 233 -274 352 -59
59 -105 107 -104 107 2 0 38 -14 81 -31z m-482 -2339 c340 -14 681 -41 955
-76 185 -24 434 -65 443 -74 11 -10 187 -573 182 -579 -2 -2 -120 10 -262 27
-579 70 -1064 96 -1773 96 -709 0 -1194 -26 -1773 -96 -142 -17 -260 -29 -262
-27 -5 6 171 569 182 579 9 9 258 51 443 74 559 72 1252 100 1865 76z m-2580
-466 c-48 -154 -89 -287 -91 -297 -9 -29 15 -85 49 -113 37 -31 42 -31 362 10
551 70 1072 99 1805 99 733 0 1254 -29 1805 -99 320 -41 325 -41 362 -10 34
28 58 84 49 113 -2 10 -43 142 -90 295 -47 152 -86 278 -86 281 0 3 46 -7 102
-21 l103 -27 74 -235 c63 -201 74 -246 74 -310 1 -121 -54 -215 -157 -267 -71
-36 -150 -39 -331 -15 -582 80 -1153 114 -1905 114 -717 0 -1235 -30 -1820
-103 -277 -35 -340 -34 -416 4 -103 52 -158 146 -157 267 0 64 11 109 74 310
l74 235 100 26 c55 14 101 25 103 24 2 -2 -36 -128 -83 -281z"/>
<path d="M2245 2661 c-44 -11 -76 -29 -113 -65 -124 -116 -93 -324 59 -400
l53 -26 316 0 316 0 53 26 c152 76 183 284 59 400 -73 69 -71 69 -408 71 -168
1 -318 -2 -335 -6z m605 -162 c60 -21 74 -109 22 -149 -23 -19 -41 -20 -312
-20 -271 0 -289 1 -312 20 -50 38 -40 121 16 146 41 17 536 20 586 3z"/>
</g>
</svg>
