<?xml version="1.0" standalone="no"?>
<!DOCTYPE svg PUBLIC "-//W3C//DTD SVG 20010904//EN"
 "http://www.w3.org/TR/2001/REC-SVG-20010904/DTD/svg10.dtd">
<svg version="1.0" xmlns="http://www.w3.org/2000/svg"
 width="512.000000pt" height="512.000000pt" viewBox="0 0 512.000000 512.000000"
 preserveAspectRatio="xMidYMid meet">

<g transform="translate(0.000000,512.000000) scale(0.100000,-0.100000)"
fill="#000000" stroke="none">
<path d="M1625 5108 c-42 -24 -44 -37 -45 -221 l0 -177 -511 -2170 c-316
-1346 -509 -2184 -507 -2207 2 -25 11 -42 28 -55 26 -19 873 -278 909 -278 11
0 31 10 45 23 18 15 198 426 622 1417 329 767 600 1398 603 1402 6 7 381 -856
381 -875 0 -4 -92 -7 -205 -7 -205 0 -206 0 -230 -25 l-25 -24 0 -415 0 -415
23 -26 c20 -23 57 -32 470 -115 312 -62 454 -87 470 -81 12 5 218 185 457 400
354 318 437 398 448 428 10 28 12 86 10 213 l-4 175 -294 1290 -294 1290 -5
208 -6 209 -28 24 -28 24 -1132 0 c-833 -1 -1137 -4 -1152 -12z m465 -243 l0
-85 -170 0 -170 0 0 85 0 85 170 0 170 0 0 -85z m430 0 l0 -85 -130 0 -130 0
0 85 0 85 130 0 130 0 0 -85z m340 0 l0 -85 -85 0 -85 0 0 85 0 85 85 0 85 0
0 -85z m428 -2 l3 -83 -131 0 -130 0 0 85 0 86 128 -3 127 -3 3 -82z m512 2
l0 -85 -170 0 -170 0 0 85 0 85 170 0 170 0 0 -85z m-1710 -367 c0 -133 -20
-189 -88 -250 -57 -51 -121 -68 -259 -68 -104 0 -114 2 -109 18 6 18 96 402
96 408 0 2 81 4 180 4 l180 0 0 -112z m600 -645 l0 -758 -621 -1450 c-342
-797 -622 -1451 -623 -1452 -3 -4 -678 197 -692 206 -8 4 123 577 412 1806
233 990 424 1801 424 1803 0 1 60 2 134 2 214 0 301 26 402 122 98 93 134 192
134 373 l0 105 215 0 215 0 0 -757z m340 94 l0 -663 -52 -39 c-29 -21 -68 -49
-85 -63 l-33 -24 0 726 0 726 85 0 85 0 0 -663z m261 523 c7 -155 15 -187 69
-267 45 -68 99 -115 173 -149 75 -34 141 -44 288 -44 125 0 129 -1 134 -22
115 -488 435 -1942 435 -1978 l0 -50 -524 0 -524 0 -216 504 c-119 277 -216
508 -216 513 1 4 59 51 129 103 71 52 136 107 145 122 14 23 16 103 16 718 l0
691 43 -3 42 -3 6 -135z m571 -70 c26 -113 47 -209 47 -214 1 -4 -59 -7 -131
-4 -124 3 -137 6 -186 32 -102 56 -132 120 -132 281 l0 115 177 -2 178 -3 47
-205z m528 -2635 c0 -20 -77 -94 -394 -380 l-394 -355 -349 70 c-191 38 -358
72 -370 75 l-23 5 0 305 0 305 765 0 765 0 0 -25z"/>
</g>
</svg>
