<?xml version="1.0" standalone="no"?>
<!DOCTYPE svg PUBLIC "-//W3C//DTD SVG 20010904//EN"
 "http://www.w3.org/TR/2001/REC-SVG-20010904/DTD/svg10.dtd">
<svg version="1.0" xmlns="http://www.w3.org/2000/svg"
 width="512.000000pt" height="512.000000pt" viewBox="0 0 512.000000 512.000000"
 preserveAspectRatio="xMidYMid meet">

<g transform="translate(0.000000,512.000000) scale(0.100000,-0.100000)"
fill="#000000" stroke="none">
<path d="M2330 5110 c-243 -25 -579 -109 -632 -157 -38 -35 -6 -123 45 -123
10 0 69 16 133 35 354 107 719 132 1074 71 455 -78 853 -276 1210 -605 l65
-60 -122 -123 -123 -123 -62 61 c-388 376 -960 580 -1498 536 -472 -39 -898
-228 -1223 -541 l-57 -56 -121 120 -120 120 88 84 c106 102 246 208 388 293
117 70 137 96 110 148 -30 58 -64 54 -191 -22 -128 -76 -278 -188 -406 -303
-111 -99 -139 -138 -142 -196 -2 -33 -14 -55 -68 -122 -209 -260 -365 -575
-448 -901 -53 -212 -71 -347 -77 -600 l-6 -220 -33 -44 c-99 -128 -80 -336 40
-457 l46 -46 0 -274 0 -274 -35 -17 c-45 -21 -102 -87 -115 -133 -5 -20 -10
-93 -10 -162 0 -117 2 -129 27 -180 52 -101 124 -129 329 -129 l114 0 0 -53
c0 -188 82 -333 230 -405 54 -26 111 -39 325 -76 201 -35 262 -49 270 -62 26
-45 70 -84 109 -99 36 -14 76 -16 248 -13 l205 3 40 28 c22 15 50 46 64 70
l24 42 3 850 c2 571 -1 866 -8 899 -13 61 -49 110 -100 136 -35 18 -59 20
-246 20 -192 0 -211 -2 -252 -22 -29 -14 -54 -36 -71 -63 l-26 -42 -263 -46
c-277 -49 -318 -62 -394 -120 l-48 -37 0 82 0 81 46 49 c123 131 134 325 26
466 l-36 47 12 135 c29 338 163 612 432 880 610 612 1594 766 2395 375 370
-180 667 -461 825 -780 92 -186 127 -314 137 -506 6 -103 5 -108 -19 -140
-118 -157 -106 -358 28 -490 l44 -43 0 -78 c0 -43 -3 -78 -6 -78 -4 0 -22 14
-42 31 -66 58 -124 76 -402 125 -146 26 -266 51 -268 55 -13 32 -54 77 -87 96
-38 22 -51 23 -254 23 -211 0 -215 0 -257 -25 -26 -15 -54 -43 -69 -69 -25
-42 -25 -46 -25 -249 l0 -206 26 -20 c36 -28 60 -26 95 8 l29 29 0 180 c0 140
3 182 14 191 9 8 70 11 197 9 l184 -3 3 -859 c1 -626 -1 -862 -9 -872 -16 -20
-361 -20 -378 -1 -7 9 -11 176 -13 536 l-3 523 -24 19 c-30 25 -76 24 -101 -1
-20 -20 -20 -33 -20 -554 0 -354 4 -544 11 -563 15 -40 57 -82 104 -104 35
-16 67 -19 236 -19 188 0 197 1 245 25 41 20 71 52 100 103 1 1 118 23 260 47
225 39 268 50 331 80 143 70 223 209 223 386 l0 66 153 5 c166 5 203 16 259
75 49 51 58 90 58 240 0 112 -4 145 -19 178 -22 49 -65 93 -108 112 l-33 13 0
271 0 271 49 54 c80 87 96 130 96 254 0 112 -11 147 -71 226 -23 30 -24 38
-24 196 0 282 -41 580 -86 625 -30 30 -69 29 -99 -2 -30 -29 -30 -25 -6 -150
26 -135 41 -294 41 -436 l0 -118 -32 10 c-42 12 -104 12 -146 0 l-32 -10 0 97
c0 478 -163 953 -444 1295 l-39 49 76 76 c67 67 78 74 89 60 81 -102 146 -192
193 -269 57 -91 175 -326 175 -347 0 -18 42 -42 72 -42 37 0 68 32 68 70 0 56
-123 305 -233 470 -28 41 -81 115 -120 163 -60 76 -69 94 -71 131 -2 56 -29
91 -154 203 -380 339 -809 541 -1317 619 -120 18 -456 26 -575 14z m401 -640
c421 -43 779 -206 1089 -496 90 -85 121 -104 165 -104 29 0 68 -44 158 -180
61 -92 177 -310 177 -333 0 -5 -19 15 -41 45 -137 177 -366 372 -584 498 -563
325 -1274 389 -1900 170 -133 -47 -356 -158 -475 -237 -177 -117 -349 -272
-465 -418 -26 -33 -50 -62 -52 -65 -9 -10 20 58 59 138 89 182 232 382 273
382 44 0 77 20 164 101 397 372 912 551 1432 499z m-1803 -591 c-269 -353
-418 -810 -418 -1284 l0 -60 -105 0 -105 -1 0 91 c0 136 18 315 46 460 65 333
234 701 442 959 l55 68 74 -75 75 -74 -64 -84z m-438 -1510 c56 -25 77 -44
100 -89 42 -83 34 -166 -23 -235 -77 -94 -220 -100 -307 -13 -42 42 -60 85
-60 145 1 153 153 254 290 192z m4317 -3 c40 -20 83 -65 99 -103 8 -18 14 -59
14 -92 0 -50 -5 -66 -32 -107 -89 -131 -280 -124 -356 14 -46 83 -22 212 50
264 69 49 159 59 225 24z m-2937 -485 c7 -13 10 -298 10 -853 0 -738 -2 -836
-16 -856 -15 -21 -21 -22 -193 -22 -124 0 -181 4 -189 12 -17 17 -17 1709 0
1726 8 8 66 12 195 12 170 0 183 -1 193 -19z m-1400 -301 l0 -240 -60 0 -60 0
0 240 0 240 60 0 60 0 0 -240z m4300 0 l0 -240 -55 0 -55 0 0 240 0 240 55 0
55 0 0 -240z m-3450 -551 l0 -742 -52 7 c-29 4 -63 10 -76 13 l-22 5 2 716 3
716 60 12 c33 6 66 12 73 13 9 1 12 -153 12 -740z m2590 722 l35 -7 3 -716 2
-716 -50 -11 c-28 -6 -62 -11 -75 -11 l-25 0 0 733 c0 404 3 736 6 740 6 6 19
4 104 -12z m-2894 -1409 c-6 -5 -128 15 -180 30 -55 17 -131 89 -153 146 -16
43 -18 86 -18 517 l0 470 30 54 c48 87 106 121 247 144 l73 13 3 -685 c1 -376
0 -686 -2 -689z m3307 1324 c21 -10 53 -37 73 -59 62 -73 64 -91 64 -581 0
-286 -4 -455 -11 -480 -29 -105 -104 -166 -237 -190 -48 -9 -93 -16 -99 -16
-10 0 -13 144 -13 689 l0 688 93 -16 c50 -10 109 -25 130 -35z m-3813 -641 l0
-165 -119 0 c-125 0 -175 11 -191 40 -6 10 -10 69 -10 130 0 104 1 112 25 135
23 24 29 25 160 25 l135 0 0 -165z m4394 144 c25 -20 26 -23 26 -139 0 -167 3
-164 -179 -168 l-141 -4 0 166 0 166 134 0 c120 0 136 -2 160 -21z"/>
</g>
</svg>
